{"accessors" : [{"bufferView" : 0, "byteOffset" : 0, "componentType" : 5123, "count" : 108, "type" : "SCALAR", "max" : [107], "min" : [0]}, {"bufferView" : 1, "byteOffset" : 0, "componentType" : 5126, "count" : 108, "type" : "VEC3", "max" : [50.26457977294922, 1.0107213258743286, 6.614903450012207], "min" : [49.01448059082031, 0.010721325874328613, 5.364800930023193], "name" : "POSITION"}, {"bufferView" : 1, "byteOffset" : 12, "componentType" : 5126, "count" : 108, "type" : "VEC3", "max" : [0.9379165172576904, 1.0000044107437134, 0.9379147887229919], "min" : [-0.9379150867462158, -1.0000044107437134, -0.9379158616065979], "name" : "NORMAL"}, {"bufferView" : 1, "byteOffset" : 24, "componentType" : 5126, "count" : 108, "type" : "VEC2", "max" : [0.12059158086776733, -0.4930444359779358], "min" : [0.015563100576400757, -0.6035049557685852], "name" : "TEXCOORD_0"}], "asset" : {"generator" : "Aspose.3D 22.1", "version" : "2.0"}, "buffers" : [{"uri" : "data:application/octet-stream;base64,", "byteLength" : 3680}], "bufferViews" : [{"buffer" : 0, "byteOffset" : 0, "byteLength" : 216, "target" : 34963}, {"buffer" : 0, "byteOffset" : 220, "byteLength" : 3456, "byteStride" : 32, "target" : 34962}], "materials" : [{"name" : "", "pbrMetallicRoughness" : {"baseColorFactor" : [0, 0, 0, 1], "metallicFactor" : 0, "roughnessFactor" : 0}, "emissiveFactor" : [0, 0, 0], "alphaMode" : "OPAQUE", "doubleSided" : false}], "meshes" : [{"primitives" : [{"attributes" : {"POSITION" : 1, "NORMAL" : 2, "TEXCOORD_0" : 3}, "indices" : 0, "material" : 0, "mode" : 4}], "name" : ""}], "nodes" : [{"mesh" : 0, "name" : "pCube84"}, {"children" : [0], "matrix" : [-0.8517241944002183, 0, -0.5239903593324013, 0, 0, 1, 0, 0, 0.5239903593324013, 0, -0.8517241944002183, 0, 7.102137085645204, 2.131583791784811, -8.15347297190221, 1], "name" : "LepakCorner2"}, {"children" : [1], "matrix" : [1, 0, 0, 0, 0, 1, 0, 0, 0, 0, 1, 0, 0, -2.1330097080758996, 0, 1], "name" : "Building"}], "scene" : 0, "scenes" : [{"nodes" : [2]}]}